HIERARCHY
ROOT Hips
{
    OFFSET 0.000000 0.000000 0.000000
    CHANNELS 6 Xposition Yposition Zposition Zrotation Xrotation Yrotation
    JOINT Spine
    {
        OFFSET -0.000000 14.517291 0.000000
        CHANNELS 3 Zrotation Xrotation Yrotation
        JOINT Spine1
        {
            OFFSET -0.000000 37.558300 0.000000
            CHANNELS 3 Zrotation Xrotation Yrotation
            JOINT Neck
            {
                OFFSET -0.000000 37.404057 3.400369
                CHANNELS 3 Zrotation Xrotation Yrotation
                JOINT Head
                {
                    OFFSET -0.000000 24.785618 -3.540803
                    CHANNELS 3 Zrotation Xrotation Yrotation
                    End Site
                    {
                        OFFSET -0.000000 35.408028 0.000000
                    }
                }
            }
            JOINT LeftShoulder
            {
                OFFSET 6.992933 33.973492 -0.192664
                CHANNELS 3 Zrotation Xrotation Yrotation
                JOINT LeftArm
                {
                    OFFSET 21.527611 0.000000 0.000000
                    CHANNELS 3 Zrotation Xrotation Yrotation
                    JOINT LeftForeArm
                    {
                        OFFSET 56.353916 0.000000 0.000000
                        CHANNELS 3 Zrotation Xrotation Yrotation
                        JOINT LeftHand
                        {
                            OFFSET 47.774071 0.000000 0.000000
                            CHANNELS 3 Zrotation Xrotation Yrotation
                            End Site
                            {
                                OFFSET 26.556021 0.000000 0.000000
                            }
                        }
                    }
                }
            }
            JOINT RightShoulder
            {
                OFFSET -7.065357 33.973492 -0.192664
                CHANNELS 3 Zrotation Xrotation Yrotation
                JOINT RightArm
                {
                    OFFSET -21.527611 0.000000 0.000000
                    CHANNELS 3 Zrotation Xrotation Yrotation
                    JOINT RightForeArm
                    {
                        OFFSET -56.353916 0.000000 0.000000
                        CHANNELS 3 Zrotation Xrotation Yrotation
                        JOINT RightHand
                        {
                            OFFSET -47.774071 0.000000 0.000000
                            CHANNELS 3 Zrotation Xrotation Yrotation
                            End Site
                            {
                                OFFSET -26.556021 0.000000 0.000000
                            }
                        }
                    }
                }
            }
        }
    }
    JOINT LeftUpLeg
    {
        OFFSET 17.704014 0.000000 0.000000
        CHANNELS 3 Zrotation Xrotation Yrotation
        JOINT LeftLeg
        {
            OFFSET -0.000000 -81.181816 0.000000
            CHANNELS 3 Zrotation Xrotation Yrotation
            JOINT LeftFoot
            {
                OFFSET -0.000000 -62.821102 0.000000
                CHANNELS 3 Zrotation Xrotation Yrotation
                JOINT LeftToeBase
                {
                    OFFSET -0.000000 -11.507608 26.556021
                    CHANNELS 3 Zrotation Xrotation Yrotation
                    End Site
                    {
                        OFFSET -0.000000 0.000000 7.081605
                    }
                }
            }
        }
    }
    JOINT RightUpLeg
    {
        OFFSET -17.704014 0.000000 0.000000
        CHANNELS 3 Zrotation Xrotation Yrotation
        JOINT RightLeg
        {
            OFFSET -0.000000 -81.181816 0.000000
            CHANNELS 3 Zrotation Xrotation Yrotation
            JOINT RightFoot
            {
                OFFSET -0.000000 -62.821102 0.000000
                CHANNELS 3 Zrotation Xrotation Yrotation
                JOINT RightToeBase
                {
                    OFFSET -0.000000 -11.507608 26.556021
                    CHANNELS 3 Zrotation Xrotation Yrotation
                    End Site
                    {
                        OFFSET -0.000000 0.000000 7.081605
                    }
                }
            }
        }
    }
}
MOTION
Frames:    6
Frame Time:    0.008333
32.423656    158.873947    -105.200531    -0.258791    -1.041254    25.859329    -1.960128    -3.089691    -1.059402    -7.700825    0.720111    -0.288042    8.035448    6.408768    -6.647154    10.667907    -7.155904    -5.483648    6.504665    -1.118196    -13.590464    -26.704504    -14.039685    -44.565540    -3.701950    -43.707615    -73.332573    -28.462288    -38.471802    -36.865253    -8.457960    5.643619    -7.306261    19.222641    25.451019    9.350247    16.801960    13.790160    3.282236    2.141378    13.767658    24.328945    8.957878    -0.776376    0.117853    -11.531799    25.627682    -16.283810    7.221758    -22.628206    44.258766    0.000000    0.000000    0.000000    -14.657763    -27.766520    -8.241242    11.543484    27.460499    -13.832130    1.232614    14.195482    -13.563853    0.000000    0.000000    0.000000    
32.424805    158.871429    -105.188164    -0.252269    -1.063940    25.897831    -1.969240    -3.085921    -1.072221    -7.712395    0.739415    -0.290884    8.060092    6.385245    -6.628813    10.632485    -7.159251    -5.475425    6.532186    -1.007161    -13.664985    -26.765589    -13.652344    -45.102268    -4.081267    -43.245018    -74.748940    -28.363119    -38.342529    -36.599365    -8.444122    5.630802    -7.294661    19.196020    25.450834    9.380587    16.810072    13.817971    3.265105    2.086649    13.786535    24.344296    8.961111    -0.761513    0.051950    -11.536849    25.630844    -16.305519    7.245321    -22.632074    44.303917    0.000000    0.000000    0.000000    -14.670131    -27.731781    -8.289071    11.536813    27.480009    -13.817718    1.236385    14.168160    -13.558990    0.000000    0.000000    0.000000    
32.428146    158.869324    -105.172874    -0.246277    -1.082641    25.932308    -1.982958    -3.086554    -1.082090    -7.711623    0.758275    -0.292726    8.079381    6.357872    -6.607522    10.589574    -7.162550    -5.465453    6.551497    -0.903465    -13.743626    -26.757301    -13.168233    -45.590263    -4.611396    -42.888569    -76.318146    -28.250029    -38.444164    -36.348442    -8.441118    5.614693    -7.279848    19.178032    25.456451    9.396540    16.809519    13.810653    3.257037    2.046061    13.772276    24.366482    8.964994    -0.741961    -0.011688    -11.545106    25.617287    -16.303444    7.267048    -22.621647    44.323540    0.000000    0.000000    0.000000    -14.684272    -27.696716    -8.289738    11.562225    27.483574    -13.825116    1.254633    14.134689    -13.591417    0.000000    0.000000    0.000000    
32.430496    158.870758    -105.159332    -0.245149    -1.101257    25.959770    -1.979181    -3.086029    -1.086337    -7.735355    0.770517    -0.293319    8.120666    6.327600    -6.585475    10.531591    -7.157555    -5.460776    6.603916    -0.816959    -13.839942    -26.854279    -12.807814    -46.059681    -5.440650    -42.329796    -78.031883    -27.982151    -38.612312    -36.013359    -8.421458    5.627508    -7.276366    19.156527    25.470018    9.433688    16.788666    13.788129    3.248148    2.043007    13.751500    24.396454    8.972047    -0.720438    -0.058063    -11.548211    25.607103    -16.311270    7.266410    -22.636866    44.341923    0.000000    0.000000    0.000000    -14.685519    -27.672773    -8.313934    11.549767    27.501255    -13.814303    1.275769    14.123542    -13.593841    0.000000    0.000000    0.000000    
32.434227    158.871429    -105.143501    -0.236322    -1.117072    25.991089    -1.993202    -3.087676    -1.090512    -7.743945    0.789141    -0.293158    8.123656    6.301330    -6.573319    10.530346    -7.152813    -5.451001    6.649667    -0.753649    -13.947979    -26.904819    -12.397143    -46.499580    -6.242103    -41.786713    -79.687256    -27.760551    -38.800449    -35.678204    -8.409471    5.610385    -7.258888    19.156546    25.527349    9.428872    16.744087    13.755467    3.256469    2.071403    13.724621    24.383450    8.966679    -0.698808    -0.102866    -11.540812    25.591125    -16.294579    7.256998    -22.641537    44.329830    0.000000    0.000000    0.000000    -14.700786    -27.641714    -8.317775    11.569755    27.507542    -13.813453    1.277997    14.101331    -13.627909    0.000000    0.000000    0.000000    
32.438053    158.874893    -105.131081    -0.231539    -1.127650    26.019367    -1.997255    -3.084591    -1.089645    -7.767602    0.788700    -0.292692    8.132351    6.296888    -6.568348    10.543646    -7.157376    -5.443820    6.709880    -0.685838    -14.064715    -27.009327    -12.057297    -46.923752    -7.154125    -41.197460    -81.434898    -27.545961    -39.125504    -35.025566    -8.388047    5.618760    -7.255104    19.111452    25.464481    9.464134    16.828871    13.759362    3.223482    2.063861    13.729029    24.369781    8.962564    -0.687300    -0.132817    -11.527702    25.582644    -16.289072    7.239776    -22.638393    44.316620    0.000000    0.000000    0.000000    -14.714098    -27.617228    -8.342554    11.570970    27.513313    -13.804757    1.290830    14.088932    -13.641633    0.000000    0.000000    0.000000    
